<?xml version="1.0" encoding="utf-8"?>
<!-- Generator: Adobe Illustrator 21.1.0, SVG Export Plug-In . SVG Version: 6.00 Build 0)  -->
<svg version="1.1" id="Layer_1" xmlns="http://www.w3.org/2000/svg" xmlns:xlink="http://www.w3.org/1999/xlink" x="0px" y="0px"
	 viewBox="0 0 255.1 255.1" style="enable-background:new 0 0 255.1 255.1;" xml:space="preserve">
<g>
	<path d="M56.1,18.9h104.7c5.1,0,9.5,3,11.4,7.4h14c1.6,0,3.2,0.1,4.8,0.4c-2.3-14.6-15-25.8-30.2-25.8H56.1
		c-16.9,0-30.6,13.7-30.6,30.6v154c0,15.2,11.2,27.9,25.8,30.2c-0.2-1.6-0.4-3.2-0.4-4.8v-14c-4.4-2-7.4-6.4-7.4-11.4v-154
		C43.5,24.5,49.2,18.9,56.1,18.9z"/>
	<path d="M199,39H94.3c-16.9,0-30.6,13.7-30.6,30.6v154c0,16.9,13.7,30.6,30.6,30.6H199c16.9,0,30.6-13.7,30.6-30.6v-154
		C229.6,52.8,215.9,39,199,39z"/>
</g>
</svg>
